<?xml version="1.0" encoding="utf-8"?>
<!-- Generator: Adobe Illustrator 19.0.0, SVG Export Plug-In . SVG Version: 6.00 Build 0)  -->
<svg version="1.1" id="Layer_1" xmlns="http://www.w3.org/2000/svg" xmlns:xlink="http://www.w3.org/1999/xlink" x="0px" y="0px"
	 width="240px" height="240px" viewBox="0 0 240 240" style="enable-background:new 0 0 240 240;" xml:space="preserve">
<style type="text/css">
	.st0{fill:#FFFFFF;}
</style>
<g>
	<g>
		<path d="M136,84L136,84l-34,0v36h34v0c9.9,0,18-8.1,18-18C154,92.1,145.9,84,136,84z"/>
	</g>
	<g>
		<path d="M120,0C53.7,0,0,53.7,0,120s53.7,120,120,120s120-53.7,120-120S186.3,0,120,0z M136,144L136,144l-34,0v36H78V60l58,0v0
			c23.2,0,42,18.8,42,42C178,125.2,159.2,144,136,144z"/>
	</g>
</g>
<path class="st0" d="M136,60L136,60H78v120h24v-36h34v0c23.2,0,42-18.8,42-42C178,78.8,159.2,60,136,60z M136,120L136,120l-34,0V84
	h34v0c9.9,0,18,8.1,18,18C154,111.9,145.9,120,136,120z"/>
</svg>
